<?xml version="1.0" encoding="UTF-8" standalone="no"?>
<svg xmlns:svg="http://www.w3.org/2000/svg" xmlns="http://www.w3.org/2000/svg" xmlns:xlink="http://www.w3.org/1999/xlink" version="1.0" width="650" height="164">
  <defs id="defs38"/>
  <path d="M 43.16075,84.3665 L 43.16075,79.8115 L 35.80875,78.7485 C 35.43775,77.1825 34.82475,75.7175 33.99975,74.3935 L 38.44475,68.4445 L 35.22175,65.2255 L 29.26875,69.6665 C 27.94075,68.8425 26.47975,68.2325 24.91375,67.8655 L 23.85075,60.5135 L 19.29575,60.5135 L 18.22975,67.8685 C 16.66675,68.2355 15.19875,68.8485 13.87475,69.6735 L 7.92175,65.2325 L 4.70675,68.4515 L 9.15175,74.4045 C 8.32775,75.7325 7.71375,77.1975 7.34675,78.7635 L 0.00075,79.8275 L 0.00075,84.3825 L 7.35275,85.4455 C 7.72375,87.0085 8.33675,88.4765 9.16175,89.8005 L 4.71675,95.7535 L 7.93575,98.9725 L 13.88875,94.5275 C 15.21675,95.3475 16.68175,95.9615 18.24375,96.3285 L 19.30975,103.6765 L 23.86475,103.6765 L 24.92775,96.3245 C 26.49375,95.9575 27.95875,95.3405 29.28275,94.5155 L 35.23575,98.9605 L 38.45475,95.7415 L 34.00975,89.7885 C 34.83375,88.4645 35.44375,86.9955 35.81075,85.4335 L 43.16075,84.3665 z M 13.15675,82.0975 C 13.15675,77.4455 16.92675,73.6675 21.57875,73.6675 C 26.23075,73.6675 30.00875,77.4445 30.00875,82.0975 C 30.00875,86.7535 26.23175,90.5235 21.57875,90.5235 C 16.92575,90.5235 13.15675,86.7535 13.15675,82.0975" id="path11" style="fill:#0078c1"/>
  <path d="M 147.84875,23.8475 L 147.84875,19.2965 L 140.49375,18.2305 C 140.12675,16.6675 139.51375,15.1995 138.68875,13.8785 L 143.13375,7.9255 L 139.91075,4.7025 L 133.96175,9.1515 C 132.63375,8.3275 131.16875,7.7175 129.60275,7.3465 L 128.53975,-0.0005 L 123.98475,-0.0005 L 122.91475,7.3515 C 121.35575,7.7225 119.88775,8.3355 118.56275,9.1605 L 112.60975,4.7155 L 109.39075,7.9385 L 113.83975,13.8915 C 113.01575,15.2155 112.40175,16.6805 112.03875,18.2465 L 104.68675,19.3095 L 104.68675,23.8645 L 112.03875,24.9305 C 112.40575,26.4935 113.02275,27.9575 113.84775,29.2825 L 109.39875,35.2355 L 112.62175,38.4545 L 118.57475,34.0095 C 119.89875,34.8295 121.36775,35.4475 122.92975,35.8105 L 123.99575,43.1625 L 128.55075,43.1625 L 129.61375,35.8075 C 131.17975,35.4405 132.64875,34.8235 133.97275,34.0025 L 139.92175,38.4475 L 143.14075,35.2285 L 138.69575,29.2715 C 139.51575,27.9475 140.13375,26.4785 140.49675,24.9165 L 147.84875,23.8475 z M 117.84075,21.5815 C 117.84075,16.9255 121.61075,13.1515 126.26675,13.1515 C 130.91875,13.1515 134.69275,16.9245 134.69275,21.5815 C 134.69275,26.2335 130.91975,30.0035 126.26675,30.0035 C 121.60975,30.0035 117.84075,26.2335 117.84075,21.5815" id="path13" style="fill:#1c3f94"/>
  <path d="M 147.82875,144.8475 L 147.82875,140.2925 L 140.47675,139.2265 C 140.10575,137.6635 139.49275,136.1955 138.66775,134.8715 L 143.10875,128.9225 L 139.88975,125.6995 L 133.93675,130.1485 C 132.60875,129.3245 131.14775,128.7105 129.58175,128.3435 L 128.51575,120.9915 L 123.96075,120.9915 L 122.89775,128.3465 C 121.33175,128.7175 119.86675,129.3305 118.54275,130.1515 L 112.58975,125.7135 L 109.37075,128.9325 L 113.81975,134.8815 C 112.99975,136.2095 112.38175,137.6745 112.01875,139.2405 L 104.66675,140.3035 L 104.66675,144.8585 L 112.01875,145.9245 C 112.38575,147.4875 113.00275,148.9515 113.82775,150.2765 L 109.38275,156.2295 L 112.60175,159.4525 L 118.55475,155.0035 C 119.88275,155.8275 121.34775,156.4415 122.90975,156.8045 L 123.97575,164.1525 L 128.53075,164.1525 L 129.59375,156.8045 C 131.15975,156.4335 132.62075,155.8245 133.94875,154.9955 L 139.89775,159.4405 L 143.11675,156.2175 L 138.67575,150.2645 C 139.49575,148.9405 140.10975,147.4715 140.47675,145.9095 L 147.82875,144.8475 z M 117.82075,142.5775 C 117.82075,137.9215 121.59075,134.1435 126.24675,134.1435 C 130.89875,134.1435 134.67675,137.9205 134.67675,142.5775 C 134.67675,147.2295 130.89975,150.9995 126.24675,150.9995 C 121.59075,150.9995 117.82075,147.2295 117.82075,142.5775" id="path15" style="fill:#00bce4"/>
  <path d="M 55.27775,82.0975 C 55.27775,70.5775 60.69575,60.2965 69.11375,53.6675 L 56.58275,31.9565 C 53.64475,34.0115 50.86375,36.3355 48.26975,38.9255 C 42.13275,45.0665 37.48875,52.2885 34.45675,60.1595 L 34.80875,59.9015 L 35.65675,59.2685 L 44.39875,68.0105 C 44.39875,68.0105 40.25775,73.5575 39.39875,74.7095 C 40.82475,74.9125 47.67575,75.9085 47.67575,75.9085 L 47.67575,88.2755 C 47.67575,88.2755 40.83175,89.2675 39.40575,89.4705 C 40.26475,90.6225 44.40575,96.1655 44.40575,96.1655 L 35.66375,104.9155 L 34.44875,104.0095 C 37.47975,111.8885 42.12475,119.1225 48.26875,125.2675 C 50.85875,127.8535 53.63975,130.1775 56.57375,132.2325 L 69.10475,110.5215 C 60.69575,103.8945 55.27775,93.6165 55.27775,82.0975" id="path17" style="fill:#00bce4"/>
  <path d="M 134.61775,38.9255 C 134.58675,38.8985 134.55875,38.8665 134.53175,38.8395 C 134.12175,39.0075 133.75875,39.1555 133.68775,39.1875 C 133.51975,40.3395 132.46075,47.6715 132.46075,47.6715 L 120.08575,47.6715 C 120.08575,47.6715 119.09775,40.8275 118.89075,39.4055 C 117.73875,40.2685 112.19575,44.4095 112.19575,44.4095 L 103.44575,35.6595 C 103.44575,35.6595 107.58675,30.1205 108.44575,28.9685 C 107.02375,28.7655 100.17275,27.7695 100.17275,27.7695 L 100.17275,21.8475 L 100.16875,21.6715 C 97.30575,21.2655 94.39175,21.0385 91.44575,21.0385 C 82.30875,21.0385 73.47675,23.0345 65.44575,26.8195 L 77.98475,48.5305 C 82.14875,46.8545 86.68775,45.9365 91.44575,45.9365 C 109.64475,45.9365 124.74275,59.4485 127.24275,76.9635 L 152.28175,76.9635 C 151.09475,62.5935 144.93075,49.2375 134.61775,38.9255" id="path19" style="fill:#0078c1"/>
  <path d="M 100.15675,136.3945 C 100.15675,136.3945 106.99275,135.4065 108.41875,135.1955 C 107.55575,134.0475 103.41475,128.5045 103.41475,128.5045 L 112.16475,119.7585 C 112.16475,119.7585 117.70775,123.8995 118.85975,124.7585 C 119.06275,123.3285 120.05475,116.4815 120.05475,116.4815 L 132.42175,116.4815 C 132.42175,116.4815 133.48775,123.8095 133.65175,124.9615 C 133.74175,125.0005 134.13175,125.1605 134.55375,125.3325 C 134.57375,125.3125 134.59275,125.2935 134.61675,125.2695 C 144.93275,114.9565 151.09675,101.5935 152.28475,87.2145 L 127.24575,87.2145 C 124.74975,104.7415 109.64775,118.2615 91.44475,118.2615 C 86.68675,118.2615 82.14375,117.3355 77.97975,115.6595 L 65.43675,137.3705 C 73.47175,141.1555 82.30775,143.1515 91.44475,143.1515 C 94.38575,143.1515 97.28875,142.9325 100.15575,142.5225 L 100.15575,136.3945 L 100.15675,136.3945 z" id="path21" style="fill:#1c3f94"/>
  <path d="M 227.38375,104.96135 L 212.97375,81.30935 L 204.12175,89.67235 L 204.12175,102.63335 C 204.12175,105.77835 203.29775,108.19635 201.66075,109.89135 C 200.01275,111.58235 198.12175,112.42635 195.98475,112.42635 C 193.48475,112.42635 191.52375,111.59035 190.09775,109.92235 C 188.67175,108.24635 187.96075,105.77735 187.96075,102.51235 L 187.96075,33.01635 C 187.96075,29.39535 188.65175,26.64135 190.03875,24.75035 C 191.42575,22.85535 193.40575,21.91035 195.98375,21.91035 C 198.47575,21.91035 200.46075,22.76935 201.92175,24.48035 C 203.38675,26.18735 204.12075,28.72235 204.12075,32.06635 L 204.12075,71.61335 L 222.47975,52.37135 C 224.74575,49.98035 226.48375,48.34835 227.67875,47.47335 C 228.87375,46.59435 230.33075,46.15735 232.04175,46.15735 C 234.07275,46.15735 235.76475,46.80235 237.11975,48.09835 C 238.47875,49.39135 239.15475,51.00835 239.15475,52.96135 C 239.15475,55.35235 236.93975,58.53535 232.52175,62.51235 L 223.84975,70.45335 L 240.58775,96.72635 C 241.82575,98.67135 242.71275,100.15635 243.24775,101.17135 C 243.78275,102.18635 244.05675,103.15135 244.05675,104.06635 C 244.05675,106.65635 243.34975,108.69535 241.93575,110.18735 C 240.52175,111.67535 238.65875,112.42535 236.34575,112.42535 C 234.34975,112.42535 232.81875,111.88635 231.74075,110.81235 C 230.66875,109.74235 229.21175,107.78935 227.38375,104.96135" id="k"/>
  <path d="M 309.74437,83.372384 L 309.74437,55.17295 C 309.74437,50.900323 306.2599,47.482214 301.90432,47.482214 C 297.54872,47.482214 294.06423,50.900323 294.06423,55.17295 L 294.06423,83.372384 C 294.06423,93.626713 289.70863,97.044833 281.86856,97.044833 C 274.02849,97.044833 269.67289,93.626713 269.67289,83.372384 L 269.67289,55.17295 C 269.67289,50.900323 266.18842,47.482214 261.83282,47.482214 C 257.47724,47.482214 253.99275,50.900323 253.99275,55.17295 L 253.99275,83.372384 C 253.99275,103.88105 266.18845,112.42635 281.86856,112.42635 C 297.5487,112.42635 309.74437,103.88105 309.74437,83.372384" id="u"/>
  <path d="M 382.72578,82.931504 C 382.72578,53.436682 370.4342,46.496699 354.63078,46.496699 C 346.72905,46.496699 342.3392,49.966666 342.3392,49.966666 L 342.3392,30.014276 C 342.3392,19.604326 326.53575,19.604326 326.53575,30.014276 L 326.53575,82.931504 C 326.53575,103.75137 338.82733,112.42635 354.63078,112.42635 C 370.4342,112.42635 382.72578,103.75137 382.72578,82.931504 M 342.3392,81.196515 C 342.3392,62.979113 351.1189,61.244105 354.63078,61.244105 C 359.89858,61.244105 366.92234,65.581601 366.92234,81.196515 C 366.92234,91.606455 362.53248,98.546428 354.63078,98.546428 C 346.72905,98.546428 342.3392,91.606455 342.3392,81.196515" id="b"/>
  <use transform="translate(144.0905,0)" id="u2" xlink:href="#u"/>
  <use transform="matrix(-1,0,0,-1,780.5925,159.90856)" id="n" xlink:href="#u"/>
  <path d="M 545.38876,46.583729 C 535.94142,46.583729 535.94142,60.44533 545.38876,60.44533 L 547.9653,60.44533 L 547.9653,90.594316 C 547.9653,107.05496 552.0019,112.42635 565.91523,112.42635 C 572.61425,112.42635 582.40513,111.21346 582.40513,104.28266 C 582.40513,99.950906 578.45442,98.824651 577.33791,98.824651 C 574.93315,98.824651 572.44247,99.864279 569.69416,99.864279 C 564.88462,99.864279 563.42456,97.438495 563.42456,89.294798 L 563.42456,60.44533 L 570.29535,60.44533 C 579.74269,60.44533 579.74269,46.583729 570.29535,46.583729 L 563.42456,46.583729 L 563.42456,30.123061 C 563.42456,19.726862 547.9653,19.726862 547.9653,30.123061 L 547.9653,46.583729 L 545.38876,46.583729" id="t"/>
  <use transform="translate(340.4245,0)" id="u3" xlink:href="#u"/>
</svg>